<?xml version="1.0" standalone="no"?><!DOCTYPE svg PUBLIC "-//W3C//DTD SVG 1.1//EN" "http://www.w3.org/Graphics/SVG/1.1/DTD/svg11.dtd"><svg t="1756716610937" class="icon" viewBox="0 0 1024 1024" version="1.1" xmlns="http://www.w3.org/2000/svg" p-id="14564" xmlns:xlink="http://www.w3.org/1999/xlink" width="200" height="200"><path d="M1024 361.42v180.7h-60.24v60.24h-60.24v60.22H120.48v-60.22H60.24v-60.24H0V301.18h60.24v-60.24h60.24V180.7h120.46V120.48h60.24V60.24h60.24V0h240.94v60.24h60.22v60.24h60.24v60.22h60.24v120.48h180.7v60.24z" p-id="14565"></path><path d="M963.76 421.64v60.24l-60.24 60.24L512 572.24 120.48 542.12l-60.24-60.24v-180.7h60.24l150.58-30.12 150.58 30.12 30.12 30.12 30.12-30.12v-60.24h-60.24V180.7h-60.22L331.3 150.6l30.12-30.12 120.46-30.12 120.48 30.12 60.22 60.22h60.24v120.48h60.24v60.24h-120.48v60.22l60.24 30.12 60.24-30.12 90.34-30.12z" fill="#D1D9E1" p-id="14566"></path><path d="M783.06 843.3v60.22h-60.24v60.24h-60.24V1024h-60.22v-60.24h-60.24v-60.24h-60.24v-60.22h60.24v-60.24h60.24v-60.24h60.22v60.24h60.24v60.24zM180.7 783.06h60.24v60.24H180.7v60.22H120.48v-60.22H60.24v-60.24h60.24v-60.24h60.22zM903.52 783.06h60.24v60.24h-60.24zM843.3 722.82h60.22v60.24h-60.22zM361.42 843.3h60.22v60.22h-60.22zM301.18 903.52h60.24v60.24h-60.24z" fill="#145382" p-id="14567"></path><path d="M301.18 120.48h60.24v60.22h-60.24zM120.48 240.94h301.16v60.24H120.48zM662.58 421.64h120.48v60.24h-120.48zM361.42 60.24h240.94v60.24H361.42zM602.36 120.48h60.22v60.22h-60.22zM421.64 301.18h60.24v60.24h-60.24zM783.06 361.42h180.7v60.22h-180.7z" fill="#F7F9FA" p-id="14568"></path><path d="M722.82 843.3v60.22h-60.24v60.24h-60.22v-60.24h-60.24v-60.22h60.24v-60.24h60.22v60.24zM120.48 783.06h60.22v60.24H120.48z" fill="#B2D7F3" p-id="14569"></path><path d="M602.36 843.3h60.22v60.22h-60.22z" fill="#3D99E1" p-id="14570"></path><path d="M60.24 481.88h60.24v60.24H60.24zM120.48 542.12h783.04v60.24H120.48zM903.52 481.88h60.24v60.24h-60.24z" fill="#A1AAB7" p-id="14571"></path></svg>